<svg xmlns="http://www.w3.org/2000/svg" viewBox="0 0 24 24"><path d="M2.2 17.5h14v2h-14zm0-8.3h4.4l.3 1.2c.1.4.3.8.6 1.1H2.2V9.2zm11.6 6.3H2.2v-2h8.3z" fill="none"/><path d="M6.9 10.4l-.3-1.2H2.2v2.3h5.3c-.3-.3-.5-.7-.6-1.1zm3.6 3.1H2.2v2h11.6l-3.3-2zm-8.3 4v2h14v-2h-14zm20.2-9.3c-.1-.4-.3-.7-.7-.9l-7.9-4.9c-.2-.1-.5-.2-.8-.2h-.4l-5 1.2c-.6.3-1.1 1.1-.9 1.8l1 4 .2 1c.1.4.3.7.7.9l.6.4 6.5 4 .8.5c.2.1.5.2.8.2h.3c.4-.1.7-.3.9-.7l3.8-6.1c.1-.4.2-.8.1-1.2zM9.7 6.8h-.3c-.5 0-.9-.3-1.1-.8-.1-.6.3-1.2.9-1.4h.2c.5 0 1 .3 1.1.8.1.6-.3 1.2-.8 1.4z"/></svg>