<?xml version="1.0" encoding="utf-8"?>
<!-- Generator: Adobe Illustrator 24.0.3, SVG Export Plug-In . SVG Version: 6.00 Build 0)  -->
<svg version="1.1" id="Layer_1" xmlns="http://www.w3.org/2000/svg" xmlns:xlink="http://www.w3.org/1999/xlink" x="0px" y="0px"
	 viewBox="0 0 24 24" style="enable-background:new 0 0 24 24;" xml:space="preserve">

	<rect x="-35.8" y="23.1" class="st0" width="24" height="24"/>

	<path fill="yellow" d="M-32.8,39.1h5v-2h-5V39.1z M-26.3,39.1h5v-2h-5V39.1z M-19.8,39.1h5v-2h-5V39.1z M-32.8,43.1h2v-2h-2V43.1z M-28.8,43.1
		h2v-2h-2V43.1z M-24.8,43.1h2v-2h-2V43.1z M-20.8,43.1h2v-2h-2V43.1z M-16.8,43.1h2v-2h-2V43.1z M-32.8,35.1h8v-2h-8V35.1z
			M-22.8,35.1h8v-2h-8V35.1z M-32.8,27.1v4h18v-4H-32.8z"/>



		<rect x="3.4" y="11.6" class="st2" width="17.3" height="0.7"/>
	
		<rect x="4.5" y="6.2" class="st3" width="0.5" height="4.7"/>

		<rect x="5.4" y="6.2" class="st3" width="0.5" height="4.7"/>
	
		<rect x="7" y="6.2" class="st3" width="0.5" height="4.7"/>

		<rect x="7.7" y="6.2" class="st3" width="0.5" height="4.7"/>
	
		<rect x="8.3" y="6.2" class="st3" width="0.5" height="4.7"/>
	
		<rect x="9.6" y="6.2" class="st3" width="0.5" height="4.7"/>
	
		<rect x="10.6" y="6.2" class="st3" width="0.5" height="4.7"/>

		<rect x="12.1" y="6.2" class="st3" width="0.5" height="4.7"/>
	
		<rect x="13.2" y="6.2" class="st3" width="0.5" height="4.7"/>
	
		<rect x="14.4" y="6.2" class="st3" width="0.5" height="4.7"/>
	
		<rect x="15.1" y="6.2" class="st3" width="0.5" height="4.7"/>
	
		<rect x="16.2" y="6.2" class="st3" width="0.5" height="4.7"/>
	
		<rect x="17.8" y="6.2" class="st3" width="0.5" height="4.7"/>
	
		<rect x="18.6" y="6.2" class="st3" width="0.5" height="4.7"/>
	
		<rect x="4.5" y="13.1" class="st3" width="0.5" height="4.7"/>
	
		<rect x="5.4" y="13.1" class="st3" width="0.5" height="4.7"/>
	
		<rect x="7" y="13.1" class="st3" width="0.5" height="4.7"/>
	
		<rect x="7.7" y="13.1" class="st3" width="0.5" height="4.7"/>
	
		<rect x="8.3" y="13.1" class="st3" width="0.5" height="4.7"/>
	
		<rect x="9.6" y="13.1" class="st3" width="0.5" height="4.7"/>
	
		<rect x="10.6" y="13.1" class="st3" width="0.5" height="4.7"/>
	
		<rect x="12.1" y="13.1" class="st3" width="0.5" height="4.7"/>
	
		<rect x="13.2" y="13.1" class="st3" width="0.5" height="4.7"/>
	
		<rect x="14.4" y="13.1" class="st3" width="0.5" height="4.7"/>
	
		<rect x="15.1" y="13.1" class="st3" width="0.5" height="4.7"/>
	
		<rect x="16.2" y="13.1" class="st3" width="0.5" height="4.7"/>
	
		<rect x="17.8" y="13.1" class="st3" width="0.5" height="4.7"/>
	
		<rect x="18.6" y="13.1" class="st3" width="0.5" height="4.7"/>
	
		<polygon class="st2" points="2.3,9.6 1.6,9.6 1.6,3.2 8.2,3.2 8.2,3.9 2.3,3.9 		"/>
	
		<polygon class="st2" points="22.4,9.8 21.7,9.8 21.7,3.9 16.1,3.9 16.1,3.2 22.4,3.2 		"/>
	
		<polygon class="st2" points="22.4,20.8 15.8,20.8 15.8,20.1 21.7,20.1 21.7,14.4 22.4,14.4 		"/>
	
		<polygon class="st2" points="7.9,20.8 1.6,20.8 1.6,14.2 2.3,14.2 2.3,20.1 7.9,20.1 		"/>

</svg>
